<svg width="1080" height="1080" viewBox="0 0 1080 1080" fill="none" xmlns="http://www.w3.org/2000/svg">
<rect width="1080" height="1080" rx="540" fill="#BE5CE1"/>
<path d="M802.358 387.902C801.2 383.094 799.1 378.564 796.178 374.574C793.256 370.585 789.571 367.215 785.337 364.66C711.484 319.985 626.815 296.368 540.5 296.368C454.185 296.368 369.516 319.985 295.663 364.66C291.441 367.221 287.765 370.589 284.846 374.572C281.927 378.554 279.821 383.074 278.65 387.871C277.479 392.668 277.266 397.649 278.022 402.528C278.778 407.408 280.488 412.091 283.056 416.309L508.431 785.525C511.779 791.045 516.493 795.608 522.119 798.775C527.744 801.942 534.091 803.606 540.547 803.606C547.003 803.606 553.35 801.942 558.975 798.775C564.601 795.608 569.315 791.045 572.663 785.525L798.038 416.309C800.608 412.098 802.314 407.418 803.056 402.54C803.798 397.663 803.56 392.687 802.358 387.902ZM673.002 548.787C652.126 539.312 628.506 537.801 606.594 544.537C584.681 551.274 565.989 565.794 554.043 585.36C542.096 604.926 537.719 628.186 541.737 650.756C545.755 673.326 557.89 693.647 575.856 707.888L540.5 765.875L466.549 644.806C478.69 639.335 489.528 631.345 498.345 621.364C507.162 611.384 513.755 599.643 517.688 586.92C521.62 574.197 522.801 560.783 521.153 547.569C519.505 534.355 515.065 521.642 508.128 510.274C501.191 498.907 491.916 489.145 480.918 481.636C469.92 474.128 457.451 469.044 444.338 466.723C431.225 464.401 417.768 464.895 404.861 468.172C391.954 471.449 379.891 477.434 369.473 485.729L354.566 461.29C410.558 427.111 474.888 409.028 540.488 409.028C606.088 409.028 670.419 427.111 726.411 461.29L673.002 548.787Z" fill="black"/>
<circle cx="770.463" cy="385.089" r="61.3616" fill="#BE5CE1"/>
</svg>
